<?xml version="1.0" encoding="UTF-8"?>
<svg xmlns="http://www.w3.org/2000/svg" width="480" height="400" viewBox="0 0 480 400">
  <rect width="100%" height="100%" fill="#ffffff"/>
  <line x1="200" y1="300" x2="436.35386072292994" y2="258.3244373599367" stroke="#1a1a1a" stroke-width="1.75"/>
  <line x1="200" y1="300" x2="369.7056274847714" y2="130.29437251522862" stroke="#1a1a1a" stroke-width="1.75"/>
  <line x1="200" y1="300" x2="200.00000000000003" y2="60" stroke="#1a1a1a" stroke-width="1.75"/>
  <circle cx="200" cy="300" r="3.5" fill="#1a1a1a"/>
  <path d="M 251.21000315663483 290.9702947613196 A 52 52 0 0 0 236.76955262170048 263.2304473782995" fill="none" stroke="#1a1a1a" stroke-width="1.75"/>
  <text x="262.0907583224755" y="267.67759707354764" fill="#1a1a1a" font-family="Arial, Helvetica, sans-serif" font-size="14" font-weight="normal" text-anchor="middle" dominant-baseline="middle">35°</text>
  <path d="M 236.76955262170048 263.2304473782995 A 52 52 0 0 0 200 248" fill="none" stroke="#1a1a1a" stroke-width="1.75"/>
  <text x="226.7878402655563" y="235.32843272420993" fill="#1a1a1a" font-family="Arial, Helvetica, sans-serif" font-size="14" font-weight="normal" text-anchor="middle" dominant-baseline="middle">45°</text>
  <path d="M 276.81500473495225 286.45544214197946 A 78 78 0 0 0 200 222" fill="none" stroke="#1a1a1a" stroke-width="1.75"/>
  <text x="261.7076105299078" y="226.4597334605781" fill="#1a1a1a" font-family="Arial, Helvetica, sans-serif" font-size="14" font-weight="normal" text-anchor="middle" dominant-baseline="middle">80°</text>
  <text x="450.14116926510087" y="255.8933628725997" fill="#1a1a1a" font-family="Arial, Helvetica, sans-serif" font-size="16" font-weight="bold" text-anchor="middle" dominant-baseline="middle">K</text>
  <text x="379.60512242138304" y="120.39487757861696" fill="#1a1a1a" font-family="Arial, Helvetica, sans-serif" font-size="16" font-weight="bold" text-anchor="middle" dominant-baseline="middle">N</text>
  <text x="200.00000000000003" y="46" fill="#1a1a1a" font-family="Arial, Helvetica, sans-serif" font-size="16" font-weight="bold" text-anchor="middle" dominant-baseline="middle">L</text>
  <text x="184" y="308" fill="#1a1a1a" font-family="Arial, Helvetica, sans-serif" font-size="16" font-weight="bold" text-anchor="end" dominant-baseline="middle">O</text>
</svg>
